#!OML:ASF F:\VICON\USERDATA\INSTALL\rory3\rory3.ASF
:FULLY-SPECIFIED
:DEGREES
548
root 2.11687 16.6248 17.1024 18.5825 -3.56586 -0.82261
lowerback 0.947325 2.68492 1.9369
upperback -6.84115 3.70664 -0.181986
thorax -7.53923 1.70934 -1.54494
lowerneck -8.68163 0.621758 -0.239423
upperneck 23.8878 0.590797 1.44348
head 8.87709 0.414239 0.591791
rclavicle 2.80783e-014 8.15017e-015
rhumerus -12.926 10.8425 -85.5574
rradius 98.1709
rwrist -91.6244
rhand 13.4946 3.86834
rfingers 7.12502
rthumb 38.4328 -21.8118
lclavicle 2.80783e-014 8.15017e-015
lhumerus -28.3893 -52.5534 94.2437
lradius 104.171
lwrist 57.5744
lhand 12.8703 16.9307
lfingers 7.12502
lthumb 37.8434 42.7724
rfemur -25.1147 0.849948 33.6118
rtibia 34.4953
rfoot -41.0852 -31.1979
rtoes 27.6184
lfemur -67.5354 -4.55078 -11.3565
ltibia 38.283
lfoot -10.32 31.2594
ltoes 29.0665
549
root 2.13437 16.6186 17.1792 18.9044 -3.25383 -1.96781
lowerback 0.829506 2.59696 3.41302
upperback -7.0788 3.68387 0.131977
thorax -7.66653 1.61159 -2.0353
lowerneck -8.21179 0.877776 -0.310317
upperneck 22.6968 0.982103 1.38111
head 8.37851 0.582007 0.609611
rclavicle -4.44781e-015 -1.59028e-015
rhumerus -13.2986 10.6832 -86.3763
rradius 96.2798
rwrist -93.1045
rhand 14.0507 3.7305
rfingers 7.12502
rthumb 38.9573 -21.8017
lclavicle -4.44781e-015 -1.59028e-015
lhumerus -28.6076 -55.1545 95.0088
lradius 101.776
lwrist 53.4453
lhand 13.4892 15.8386
lfingers 7.12502
lthumb 38.4277 41.5202
rfemur -25.0261 0.168107 34.8908
rtibia 34.4921
rfoot -40.7987 -30.8015
rtoes 27.2758
lfemur -68.3671 -4.6076 -9.94857
ltibia 37.9218
lfoot -12.6853 30.519
ltoes 31.6303
550
root 2.13361 16.6047 17.2314 19.0211 -3.1633 -2.08561
lowerback 1.13713 2.40586 3.49593
upperback -7.33116 3.45899 0.233722
thorax -8.13672 1.48431 -1.98296
lowerneck -7.57524 1.14233 -0.224344
upperneck 21.4153 1.38272 1.18335
head 7.83077 0.756859 0.551875
rclavicle 9.51682e-015 -4.77083e-015
rhumerus -13.6716 10.7422 -87.1964
rradius 94.2278
rwrist -94.0548
rhand 13.8373 3.60515
rfingers 7.12502
rthumb 38.7561 -21.9843
lclavicle 9.51682e-015 -4.77083e-015
lhumerus -28.2893 -57.4002 95.1038
lradius 99.3729
lwrist 50.5313
lhand 13.3597 14.5276
lfingers 7.12502
lthumb 38.3055 40.243
rfemur -24.9661 -0.156564 35.0947
rtibia 34.4853
rfoot -40.5867 -30.763
rtoes 27.1337
lfemur -69.0258 -4.83933 -9.62015
ltibia 37.6895
lfoot -16.2513 29.3393
ltoes 35.4947
551
root 2.14 16.5978 17.2906 18.9758 -3.09591 -2.12004
lowerback 1.54778 2.1724 3.62327
upperback -7.46264 3.17603 0.257983
thorax -8.53426 1.32493 -2.02984
lowerneck -7.461 1.4147 -0.000537382
upperneck 20.4759 1.77722 0.92957
head 7.50179 0.937564 0.457267
rclavicle -2.75317e-014 -9.34288e-015
rhumerus -13.9515 10.7115 -88.1248
rradius 92.1113
rwrist -94.3327
rhand 13.6772 3.41794
rfingers 7.12502
rthumb 38.6051 -22.2141
lclavicle -2.75317e-014 -9.34288e-015
lhumerus -27.4274 -59.3224 94.4552
lradius 97.2932
lwrist 48.8523
lhand 16.1768 16.0833
lfingers 7.12502
lthumb 40.9582 41.013
rfemur -24.6712 -0.600144 35.1682
rtibia 34.3749
rfoot -40.0777 -31.0444
rtoes 25.9554
lfemur -69.4497 -5.14702 -9.43581
ltibia 37.6452
lfoot -19.4827 28.0901
ltoes 38.6436
552
root 2.14828 16.579 17.3409 18.7502 -3.00223 -2.53318
lowerback 2.35818 1.96218 4.12486
upperback -7.49831 2.97719 0.390644
thorax -9.05219 1.18168 -2.18868
lowerneck -7.39666 1.63068 -0.0194554
upperneck 19.3281 2.10074 0.806248
head 7.11516 1.07968 0.437962
rclavicle -3.8763e-015 -9.74045e-015
rhumerus -14.187 10.4457 -88.9541
rradius 89.9237
rwrist -94.0964
rhand 14.1463 2.93182
rfingers 7.12502
rthumb 39.0475 -22.5746
lclavicle -3.8763e-015 -9.74045e-015
lhumerus -25.8472 -61.338 93.17
lradius 95.3395
lwrist 47.9215
lhand 18.7323 18.1462
lfingers 7.12502
lthumb 43.3523 42.2665
rfemur -24.2769 -0.741793 35.639
rtibia 34.4662
rfoot -39.9012 -31.4783
rtoes 24.7094
lfemur -69.6184 -5.34879 -8.90756
ltibia 37.5507
lfoot -21.3404 27.1852
ltoes 40.4189
553
root 2.16401 16.5777 17.4269 18.5722 -2.90731 -2.22119
lowerback 2.35369 1.70225 4.07771
upperback -7.37225 2.61208 0.321112
thorax -8.93242 1.00693 -2.19849
lowerneck -7.22023 1.83642 -0.212448
upperneck 17.9584 2.40645 0.816178
head 6.63851 1.2153 0.484367
rclavicle -6.75868e-015 -6.95746e-015
rhumerus -14.4018 10.3015 -89.6418
rradius 87.7106
rwrist -93.2476
rhand 14.4386 2.49913
rfingers 7.12502
rthumb 39.323 -22.9276
lclavicle -6.75868e-015 -6.95746e-015
lhumerus -23.261 -63.5369 90.9067
lradius 93.3499
lwrist 47.4355
lhand 20.6554 19.893
lfingers 7.12502
lthumb 45.1451 43.3352
rfemur -23.8046 -1.54801 35.2562
rtibia 34.5466
rfoot -39.9766 -30.9323
rtoes 24.5715
lfemur -69.6727 -5.99259 -9.18187
ltibia 37.5452
lfoot -21.0434 27.4598
ltoes 40.4394
554
root 2.1644 16.5587 17.4854 18.4986 -3.20432 -2.21524
lowerback 2.77424 1.57025 3.86016
upperback -7.44854 2.44573 0.37613
thorax -9.28694 0.932703 -2.01974
lowerneck -6.89236 2.15321 -0.146493
upperneck 16.8566 2.83579 0.766666
head 6.2298 1.42479 0.475988
rclavicle -2.52084e-014 -1.74931e-014
rhumerus -14.8784 10.4058 -90.2502
rradius 85.4156
rwrist -92.0629
rhand 14.5988 2.58752
rfingers 7.12502
rthumb 39.4738 -22.7951
lclavicle -2.52084e-014 -1.74931e-014
lhumerus -20.8306 -65.655 88.5513
lradius 91.5499
lwrist 46.7789
lhand 21.7504 20.9937
lfingers 7.12502
lthumb 46.1621 44.0205
rfemur -23.5227 -1.08539 35.1414
rtibia 34.6296
rfoot -40.2669 -30.8934
rtoes 25.3266
lfemur -69.8143 -6.0009 -9.21262
ltibia 37.6739
lfoot -21.2093 27.5441
ltoes 41.6616
555
root 2.17163 16.5525 17.5578 18.4692 -3.4164 -2.14798
lowerback 2.92694 1.39374 3.70315
upperback -7.44663 2.2041 0.40504
thorax -9.39613 0.8239 -1.88149
lowerneck -6.96202 2.57871 0.141248
upperneck 16.2711 3.39049 0.675376
head 6.06122 1.70484 0.435205
rclavicle -9.26834e-015 -1.31198e-014
rhumerus -15.111 10.586 -90.6865
rradius 82.8375
rwrist -90.5019
rhand 14.9262 2.72475
rfingers 7.12502
rthumb 39.7822 -22.5666
lclavicle -9.26834e-015 -1.31198e-014
lhumerus -17.6989 -67.4795 85.3285
lradius 89.8072
lwrist 45.224
lhand 22.7746 21.517
lfingers 7.12502
lthumb 47.1105 44.1344
rfemur -23.2865 -1.07584 34.973
rtibia 34.7177
rfoot -39.8401 -31.2456
rtoes 23.9441
lfemur -69.8507 -6.20226 -9.31703
ltibia 37.9052
lfoot -22.4141 27.4555
ltoes 42.8482
556
root 2.17989 16.5477 17.6344 18.5863 -3.40895 -2.5352
lowerback 2.98147 1.23925 4.08833
upperback -7.44641 2.03707 0.524069
thorax -9.43369 0.717436 -1.95389
lowerneck -7.21248 2.94419 0.47512
upperneck 15.566 3.87955 0.426934
head 5.89345 1.94408 0.334116
rclavicle -1.09953e-014 1.25234e-014
rhumerus -15.1554 10.6039 -90.9183
rradius 80.1028
rwrist -88.4246
rhand 14.9994 2.70169
rfingers 7.12502
rthumb 39.8511 -22.5691
lclavicle -1.09953e-014 1.25234e-014
lhumerus -13.5907 -68.9935 81.1763
lradius 87.9182
lwrist 43.0974
lhand 24.6285 22.3261
lfingers 7.12502
lthumb 48.8198 44.1472
rfemur -23.1618 -1.28019 35.358
rtibia 34.8257
rfoot -38.9968 -31.9167
rtoes 21.1479
lfemur -70.1478 -6.40911 -8.89586
ltibia 38.2645
lfoot -20.9169 30.0514
ltoes 40.9076
557
root 2.18517 16.5318 17.6976 18.551 -3.42086 -2.93787
lowerback 3.3895 1.11111 4.43952
upperback -7.37265 1.92217 0.648585
thorax -9.60009 0.636768 -2.01531
lowerneck -7.82351 3.25597 0.63054
upperneck 14.852 4.29735 0.28026
head 5.78155 2.1453 0.296004
rclavicle -2.2326e-014 1.19271e-015
rhumerus -15.0902 10.3777 -91.0553
rradius 77.1184
rwrist -85.6086
rhand 15.2413 2.55214
rfingers 7.12502
rthumb 40.0787 -22.6501
lclavicle -2.2326e-014 1.19271e-015
lhumerus -8.216 -70.3597 75.7379
lradius 86.0706
lwrist 40.7622
lhand 26.9149 23.1373
lfingers 7.12502
lthumb 50.9132 43.867
rfemur -22.9013 -1.24534 35.7466
rtibia 34.9878
rfoot -38.7317 -32.1946
rtoes 19.8584
lfemur -70.1145 -4.62358 -10.7162
ltibia 38.735
lfoot -15.6234 32.3689
ltoes 39.3447
